<svg width="32" height="32" viewBox="0 0 74 74" fill="none" xmlns="http://www.w3.org/2000/svg">
<path fill-rule="evenodd" clip-rule="evenodd" d="M37.0003 0C57.4348 0.000148825 74 16.5656 74 37C74 57.4344 57.4348 73.9998 37.0003 74C16.5656 74 2.97694e-05 57.4345 0 37C0 16.5655 16.5656 0 37.0003 0ZM16.1873 53.6201L20.3801 57.8123L34.3896 43.8029C32.4664 43.0644 30.9353 41.5338 30.1968 39.6107L16.1873 53.6201ZM43.8033 39.6107C43.0648 41.5338 41.5336 43.0644 39.6104 43.8029L53.62 57.8123L57.8127 53.6201L43.8033 39.6107ZM16.1873 20.3799L30.1968 34.3893C30.9352 32.4661 32.4664 30.9355 34.3896 30.1971L20.3801 16.1877L16.1873 20.3799ZM39.6104 30.1971C41.5336 30.9355 43.0648 32.4661 43.8033 34.3893L57.8127 20.3799L53.62 16.1877L39.6104 30.1971Z" fill="white"/>
</svg>
